<svg height="16" viewBox="0 0 16 16" width="16" xmlns="http://www.w3.org/2000/svg"><path d="m1.14425859 3.72683636c1.01236363-1.68727272 4.43668686-3.93228283 7.52856565-3.71183838 10.58892926.75539394 7.29195956 9.99256562 4.26214146 12.36509092-2.723394 2.1328485-6.97002025 3.5009293-10.59749499.1267071-3.62731313-3.37438388-2.20541414-7.09284853-1.19321212-8.77995964zm7.00350555-.34598232-.17565909-.00019949c-.59749495.00032323-1.08751515.1800404-1.2680404.46092929-.24743435-.25745455-.67232324-.38804041-1.26367677-.38804041h-.47935354c-.10149495 0-.18359596.08210101-.18359596.18359596v.22464647c0 .09874747.07822223.17987879.1769697.18359596.2469495.00888889.43733333.0420202.56581818.09874747.15078788.06642425.24468687.15450505.28703031.2689293.04412121.11959596.06545454.28234343.06545454.49777777v4.8079192c0 .21543434-.02230303.37915154-.06820202.50036364-.04428283.1165252-.1380202.2046061-.28686869.2692525-.1270303.0551111-.31644444.0874344-.5630707.096-.09890909.0035556-.17713132.0846869-.17713132.1834344v.2136565c0 .1011717.08210101.1834344.18359596.1834344l.67442425-.0001616c.49664646-.0252122.85947474-.155798 1.07894949-.3885253.21947475.2325657.57987879.3633131 1.08072727.3885253h.69058586c.10149495 0 .18359596-.0821011.18359596-.1834344v-.2133333c0-.0989091-.07870707-.180202-.17761616-.1834344-.25115152-.0079192-.44541414-.0386262-.57745455-.0909899-.15434343-.0609293-.25163636-.1470707-.29753535-.2635959-.04751515-.1210505-.07078788-.28832326-.07078788-.51119194v-1.95765657h.4749899c.57616162 0 1.13260606-.04638384 1.65381818-.13818182.52509089-.09212121.98828279-.30416161 1.37648489-.63014141.396606-.33309091.5892525-.80646465.5892525-1.44727273 0-.65664646-.2105859-1.13212121-.6440404-1.45389899-.423596-.31434343-.8483232-.5079596-1.26303032-.57583838-.41066667-.06723233-.84444444-.11070707-1.2900202-.12961617-.07224243-.00278787-.17130303-.00457575-.29561364-.00529545zm.4421995.73434596c.28816161.04880808.53850505.13349495.74391919.25212121.34214141.19717172.51555555.59749495.51555555 1.18949495 0 .64032323-.16662626 1.05729293-.49535353 1.23975758-.33454546.18553535-.77915152.27975757-1.3220202.27975757h-.48614142v-2.16549495c0-.21543434.02149495-.37818181.06561616-.49777777.04169697-.11280808.13818182-.20347475.28686869-.2689293.13818182-.06092929.3570101-.06868687.69155556-.02892929z" fill="#000000" fill-rule="evenodd" transform="translate(0 .5)"/></svg>
