<svg xmlns="http://www.w3.org/2000/svg" width="22" height="42" viewBox="0 0 22 42">
  <path fill="#51A37D" fill-rule="evenodd" stroke="#51A37D" stroke-width=".5" d="M5.46787302,33.7214603 L2.50533333,33.7214603 C4.26025397,31.7132063 5.75739683,28.7341587 6.99549206,25.5735238 C8.64120635,26.1690794 9.84120635,27.6928889 9.96120635,29.5119365 C9.80628571,31.8579683 7.85326984,33.7214603 5.46787302,33.7214603 M5.46787302,24.0319365 L2.50533333,24.0319365 C6.70215873,19.2287619 9.45073016,8.88336508 10.6113651,3.74622222 C11.7713651,8.88336508 14.5193016,19.2287619 18.7167619,24.0319365 L15.7535873,24.0319365 C15.5059683,24.0319365 15.2634286,24.0528889 15.0234286,24.084 C12.5916825,17.4738413 11.2564444,10.3252698 11.2354921,10.2097143 C11.180254,9.90812698 10.9173968,9.68907937 10.6113651,9.68907937 C10.3046984,9.68907937 10.0418413,9.90812698 9.98660317,10.2097143 C9.96565079,10.3252698 8.62977778,17.4738413 6.19803175,24.084 C5.95803175,24.0528889 5.71612698,24.0319365 5.46787302,24.0319365 M18.7167619,33.7214603 L15.7535873,33.7214603 C13.3681905,33.7214603 11.4158095,31.8579683 11.2608889,29.5119365 C11.3808889,27.6928889 12.5808889,26.1690794 14.2259683,25.5735238 C15.4640635,28.7341587 16.9624762,31.7132063 18.7167619,33.7214603 M10.6113651,27.1779683 C9.9504127,25.8909841 8.81453968,24.8960635 7.44311111,24.3944762 C8.93009524,20.3449524 9.99612698,16.1589206 10.6113651,13.4351111 C11.2259683,16.1589206 12.292,20.3449524 13.7789841,24.3944762 C12.4075556,24.8960635 11.2723175,25.8909841 10.6113651,27.1779683 M20.2539048,38.5659048 L15.7535873,38.5659048 C13.267873,38.5659048 11.2462857,36.5436825 11.2462857,34.0579683 L11.2462857,32.8027302 C12.3059683,34.1309841 13.9269206,34.9913016 15.7535873,34.9913016 L20.2539048,34.9913016 C20.5205714,34.9913016 20.7586667,34.8249524 20.8507302,34.5747937 C20.9415238,34.324 20.8672381,34.0433651 20.6640635,33.8713016 C18.6367619,32.1589206 16.9015238,28.8890794 15.492,25.3151111 C15.5789841,25.3093968 15.6659683,25.3017778 15.7535873,25.3017778 L20.2539048,25.3017778 C20.5205714,25.3017778 20.7586667,25.1354286 20.8507302,24.8852698 C20.9415238,24.6344762 20.8672381,24.3538413 20.6640635,24.1817778 C14.7123175,19.1538413 11.2697778,0.706222222 11.2354921,0.520190476 C11.180254,0.218603175 10.9173968,0.00019047619 10.6113651,0.00019047619 C10.3046984,0.00019047619 10.0418413,0.218603175 9.98660317,0.520190476 C9.95231746,0.706222222 6.51231746,19.1519365 0.558666667,24.1817778 C0.354857143,24.3538413 0.280571429,24.6344762 0.372,24.8852698 C0.463428571,25.1354286 0.70152381,25.3017778 0.968190476,25.3017778 L5.46787302,25.3017778 C5.5567619,25.3017778 5.64247619,25.3100317 5.73009524,25.3151111 C4.31993651,28.8890794 2.58533333,32.1589206 0.558666667,33.8713016 C0.354857143,34.0433651 0.280571429,34.324 0.372,34.5747937 C0.463428571,34.8249524 0.70152381,34.9913016 0.968190476,34.9913016 L5.46787302,34.9913016 C7.2951746,34.9913016 8.9167619,34.1309841 9.97644444,32.8027302 L9.97644444,34.0579683 C9.97644444,36.5436825 7.9535873,38.5659048 5.46787302,38.5659048 L0.968190476,38.5659048 C0.617079365,38.5659048 0.333269841,38.8503492 0.333269841,39.2008254 C0.333269841,39.5513016 0.617079365,39.835746 0.968190476,39.835746 L5.46787302,39.835746 C7.7104127,39.835746 9.65390476,38.5493968 10.6113651,36.6782857 C11.5681905,38.5493968 13.5116825,39.835746 15.7535873,39.835746 L20.2539048,39.835746 C20.6050159,39.835746 20.8888254,39.5513016 20.8888254,39.2008254 C20.8888254,38.8503492 20.6050159,38.5659048 20.2539048,38.5659048" transform="translate(0 1)"/>
</svg>
