<svg height="99" viewBox="0 0 99 99" width="99" xmlns="http://www.w3.org/2000/svg"><g fill="none" fill-rule="evenodd" transform="translate(0 4)"><path d="m53.6631.0928c-19.131-1.364-40.319 12.527-46.583 22.967-6.263 10.439-15.061 33.447 7.383 54.326 22.445 20.878 48.721 12.413 65.572-.784 18.747-14.68 39.147-71.835-26.372-76.509" fill="#f98355"/><path d="m46.6904 30.3858c0-1.333.133-2.34.406-3.08.258-.698.855-1.259 1.775-1.664.855-.377 2.209-.425 4.279-.179 1.783.302 3.332.826 4.603 1.56 2.117 1.22 3.19 3.697 3.19 7.36 0 3.962-1.031 6.542-3.065 7.671-2.07 1.148-4.821 1.731-8.18 1.731h-3.008zm21.35-5.069c-2.621-1.945-5.249-3.143-7.815-3.563-2.541-.416-5.225-.685-7.982-.802-.596-.023-1.487-.035-2.65-.035l-.266.001c-3.697.002-6.729 1.114-7.846 2.852-1.531-1.593-4.16-2.401-7.819-2.401h-2.966c-.628 0-1.136.508-1.136 1.136v1.39c0 .611.484 1.113 1.095 1.136 1.528.055 2.706.26 3.501.611.933.411 1.514.956 1.776 1.664.273.74.405 1.747.405 3.08v29.749c0 1.333-.138 2.346-.422 3.096-.274.721-.854 1.266-1.775 1.666-.786.341-1.958.541-3.484.594-.612.022-1.096.524-1.096 1.135v1.322c0 .626.508 1.135 1.136 1.135l4.173-.001c3.073-.156 5.318-.964 6.676-2.404 1.358 1.439 3.588 2.248 6.687 2.404h4.273c.628 0 1.136-.508 1.136-1.135v-1.32c0-.612-.487-1.115-1.099-1.135-1.554-.049-2.756-.239-3.573-.563-.955-.377-1.557-.91-1.841-1.631-.294-.749-.438-1.784-.438-3.163v-12.113h2.939c3.565 0 7.008-.287 10.233-.855 3.249-.57 6.115-1.882 8.517-3.899 2.454-2.061 3.646-4.99 3.646-8.955 0-4.063-1.303-7.005-3.985-8.996z" fill="#fff" fill-rule="nonzero"/></g></svg>