<svg xmlns="http://www.w3.org/2000/svg" width="67" height="78" viewBox="0 0 67 78">
  <g fill="none" fill-rule="evenodd">
    <polygon stroke="#46B84F" points="16 25 12.473 26.854 13.147 22.927 10.294 20.146 14.237 19.573 16 16 17.763 19.573 21.706 20.146 18.853 22.927 19.527 26.854" opacity=".75" transform="rotate(-15 16 22)"/>
    <polygon stroke="#BB66C0" points="51 29 47.473 30.854 48.147 26.927 45.294 24.146 49.237 23.573 51 20 52.763 23.573 56.706 24.146 53.853 26.927 54.527 30.854" opacity=".8" transform="rotate(19 51 26)"/>
    <polygon stroke="#E4C203" points="15.674 64.054 13.323 65.291 13.772 62.673 11.87 60.818 14.499 60.436 15.674 58.054 16.85 60.436 19.479 60.818 17.577 62.673 18.026 65.291" transform="rotate(71 15.674 62.054)"/>
    <polygon stroke="#F55961" points="36 18 32.473 19.854 33.147 15.927 30.294 13.146 34.237 12.573 36 9 37.763 12.573 41.706 13.146 38.853 15.927 39.527 19.854" transform="rotate(95 36 15)"/>
    <polygon stroke="#6074D6" points="37.565 69.193 34.332 70.892 34.949 67.293 32.334 64.743 35.948 64.218 37.565 60.943 39.181 64.218 42.795 64.743 40.18 67.293 40.797 70.892" opacity=".65" transform="rotate(97 37.565 66.443)"/>
  </g>
</svg>
