<svg height="40" viewBox="0 0 40 40" width="40" xmlns="http://www.w3.org/2000/svg" xmlns:xlink="http://www.w3.org/1999/xlink"><defs><circle id="a" cx="20" cy="20" r="20"/><filter id="b" height="146.4%" width="168.4%" x="-34.2%" y="-23.2%"><feOffset dy="1" in="SourceAlpha" result="shadowOffsetOuter1"/><feGaussianBlur in="shadowOffsetOuter1" result="shadowBlurOuter1" stdDeviation="1"/><feColorMatrix in="shadowBlurOuter1" result="shadowMatrixOuter1" values="0 0 0 0 0   0 0 0 0 0   0 0 0 0 0.145098039  0 0 0 0.04 0"/><feMerge><feMergeNode in="shadowMatrixOuter1"/><feMergeNode in="SourceGraphic"/></feMerge></filter><path id="c" d="m11.6 18.6378403v.0575011c.0158054 1.2157311 1.0380277 2.1298974 3.0666667 2.7424989-2.4444445 1.7777778-4.88888892 3.2-7.33333337 3.2-2.44444444 0-4.88888889-1.4222222-7.33333333-3.2 2.01488704-.6132265 3.03689561-1.5286334 3.06602568-2.7462207-.00059658-.2170626-.0016096-.5252787-.00303906-1.1041242-.00022696-.0919054-.00046442-.1860689-.00071238-.2823642-.14571553.0205929-.13385648.0074554-.0000763-.0295732-.00393651-1.5224883-.01047376-3.5699289-.01961177-5.6505081-1.91094247-2.47689181-1.20897761-5.38079135-.61009049-5.30837155.73474695.08884851 7.09514476-5.94683224 8.31515472-6.25565578 1.22001-.30882354 4.3190163.68896575 4.8523496 3.47231076.5333333 2.78334502.7562625 9.79902117-1.2666667 12.59999997-.5756582.7970652-1.4822085 1.1088219-2.719651.9352702-.0016733.5825097-.0051707.9094331-.0136823 1.5692368z"/><path id="d" d="m30 4.97437766c.8462426 1.72060447 1.5129092 4.56504891 2 8.53333334h-32c.4873237-3.96872909 1.15399037-6.81317354 2-8.53333334s3.7393107-3.37798529 8.6799032-4.97347647c1.428447 2.93307987 9.2677987 2.93275614 10.6362038-.00090119 4.9430195 1.59564731 7.8376504 3.2537732 8.683893 4.97437766z"/><mask id="e" fill="#fff"><use fill="#fff" fill-rule="evenodd" xlink:href="#a"/></mask><mask id="f" fill="#fff"><use fill="#fff" fill-rule="evenodd" xlink:href="#c"/></mask><mask id="g" fill="#fff"><use fill="#fff" fill-rule="evenodd" xlink:href="#d"/></mask></defs><g fill="none" fill-rule="evenodd"><use fill="#72d9ee" xlink:href="#a"/><g mask="url(#e)"><g filter="url(#b)" transform="matrix(-1 0 0 1 28 4.4)"><g transform="translate(.667 2.133)"><use fill="#f8d6c9" xlink:href="#c"/><path d="m11.6 17.0666667c-1.95555556-.2222223-3.55555556-.7555556-4.8-1.6 1.34575637 1.7881384 2.94575637 2.8548051 4.8 3.2z" fill="#ccc" mask="url(#f)"/></g><path d="m2.73333333 13.8c-.91864278-2.2093995-4.6-6.70887338-1.42682937-9.50887338 1.06666667-5.20000001 6.96016271-4.62445995 10.89349604-3.42445995 2.6435956.8065207 4.6398373 2.4 5.0666667 1.2 2.6666666 2.22445995 1.331248 4.4-.4268294 5.02445995-1.5955085.56671633-4.2935788 1.13333333-8.88073652.6-.81945095-.0952748-.64784092 2.41439888-1.08576345 2.68576708-.65688379.4070522-1.16683337-2.15243375-2.96784977-1.38393111-1.80101641.76850264-.73231693 4.33195901 1.2010164 4.33195901.66666667 0 1 1.8328717-.8 2.6995383-1.30650396.6422068-.97626754-.7888666-1.57317063-2.2244599z" fill="#e14356"/></g></g><g mask="url(#e)"><g transform="translate(4 27.067)"><use fill="#6aca65" xlink:href="#d"/><path d="m33.3333333 9.73333333v1.06666667h-34.66666663v-1.06666667zm0-2.66666666v1.06666666h-34.66666663v-1.06666666zm0-2.66666667v1.06666667h-34.66666663v-1.06666667z" fill="#46b84f" mask="url(#g)"/></g></g></g></svg>