<svg height="40" viewBox="0 0 40 40" width="40" xmlns="http://www.w3.org/2000/svg" xmlns:xlink="http://www.w3.org/1999/xlink"><defs><circle id="a" cx="20" cy="20" r="20"/><mask id="b" fill="#fff"><use fill="#fff" fill-rule="evenodd" xlink:href="#a"/></mask></defs><g fill="none" fill-rule="evenodd" transform="matrix(-1 0 0 1 40 0)"><use fill="#f3d041" transform="matrix(-1 0 0 1 40 0)" xlink:href="#a"/><path d="m32.2666667 31.3333333c.6518518 1.2444445 1.1407407 4.1333334 1.4666666 8.6666667h-27.46666663c.32592592-4.5333333.81481481-7.4222222 1.46666666-8.6666667.97777778-1.8666666 5.06666667-4 12.26666667-6.4 7.2 2.4 11.2888889 4.5333334 12.2666667 6.4z" fill="#bb66c0" mask="url(#b)" transform="matrix(-1 0 0 1 40 0)"/><path d="m30.4255062 23.3881413-21.66100744-2.6177511c-1.06791862-5.669149.19874804-9.2410098 3.80000004-10.7155823 1.6647887-5.4548079 8.144479-5.01112151 9.9810411-4.5664215 6.2501027 1.51338243 8.8767581 7.4799674 7.8799663 17.8997549z" fill="#fafafa" mask="url(#b)" transform="matrix(-1 0 0 1 39.03 0)"/><path d="m14.0404175 26.5333333v-8c-3.3361003-.0498918-2.6854513-5.8309393.6666667-4.0666666.6.2666666 2.1333333-.4666667 1.6-2.2666667 3.6 2.6666667 8.6165884-2.0134534 8.9333333.8666667.6233585 5.668117-.5827382 10.3268768-3.7810392 10.3272111-.3140271.0000328-.6199788.0106475-1.0189608-.0605445v3.2c-1.0439832.6222223-2.0879665.9333334-3.1319498.9333334s-2.1333333-.3111111-3.2680502-.9333334z" fill="#ffa784" mask="url(#b)" transform="matrix(-1 0 0 1 37.24 0)"/><path d="m21.4666667 23.3333333v1.0666667c-2 0-3.5555556-.9555556-4.6666667-2.8666667 1.3333333.8888889 2.8888889 1.4888889 4.6666667 1.8z" fill="#ccc" mask="url(#b)" transform="matrix(-1 0 0 1 38.267 0)"/><path d="m19.9955871 27.3299874c.9121539-.0436121 3.2044129-.5155999 3.2044129-1.5352802v-.8613739c.2445382 0 .9447203.5776473 1.304789 1.0666667 1.4235282 1.9333333-.1554618 3.6666667-1.4431384 3.6666667-1.6248875 0-2.7014015-1.3575365-3.0616506-2.0107068-.3602491.6531703-1.4367631 2.0107068-3.0616506 2.0107068-1.2876766 0-2.8666666-1.7333334-1.4431384-3.6666667.3600687-.4890194 1.0602508-1.0666667 1.304789-1.0666667v.8613739c0 1.0196805 2.2319371 1.4916682 3.1955876 1.5352802z" fill="#fff" fill-rule="nonzero" mask="url(#b)" transform="matrix(-1 0 0 1 40 0)"/></g></svg>