<svg height="40" viewBox="0 0 40 40" width="40" xmlns="http://www.w3.org/2000/svg" xmlns:xlink="http://www.w3.org/1999/xlink"><defs><circle id="a" cx="20" cy="20" r="20"/><mask id="b" fill="#fff"><use fill="#fff" fill-rule="evenodd" xlink:href="#a"/></mask></defs><g fill="none" fill-rule="evenodd"><use fill="#f8d6c9" transform="matrix(-1 0 0 1 40 0)" xlink:href="#a"/><path d="m24.1333333 23.2v1.6c0 1.4222222 1.0222223 2.4444444 3.0666667 3.0666667-2.3555556 1.7777777-4.7555556 2.6666666-7.2 2.6666666s-4.8444444-.8888889-7.2-2.6666666c2.0604981-.6222223 3.0827203-1.6444445 3.0666667-3.0666667-.0240805-2.1333333-.0080269-3.386452-.0240805-7.0416168-1.9109425-2.4768918-1.7883575-4.1393173-.7434239-5.3083715 2.3338918-2.61111892 6.6786155-3.47223392 13.034171-2.58334503.5930639 6.39934743.2152861 10.53268083-1.1333333 12.40000003-.5777778.8-1.5333333 1.1111111-2.8666667.9333333z" fill="#feb04a" mask="url(#b)"/><path d="m24.1333333 23.2c-1.9555555-.2222222-3.5111111-.7555556-4.6666666-1.6.9777777 1.6444444 2.5333333 2.7111111 4.6666666 3.2z" fill="#ccc" mask="url(#b)"/><path d="m34 31.907711c.8462426 1.7206045 1.5129092 4.5650489 2 8.5333333h-32c.4873237-3.9687291 1.15399037-6.8131735 2-8.5333333s3.7393107-3.3779853 8.6799032-4.9734765c1.428447 2.9330799 9.2677987 2.9327562 10.6362038-.0009012 4.9430195 1.5956473 7.8376504 3.2537732 8.683893 4.9743777z" fill="#6074d6" mask="url(#b)"/><path d="m20 36.5333333c.2945519 0 .5333333.2387815.5333333.5333334 0 .2945518-.2387814.5333333-.5333333.5333333s-.5333333-.2387815-.5333333-.5333333c0-.2945519.2387814-.5333334.5333333-.5333334zm0-2.6666666c.2945519 0 .5333333.2387814.5333333.5333333s-.2387814.5333333-.5333333.5333333-.5333333-.2387814-.5333333-.5333333.2387814-.5333333.5333333-.5333333zm0-2.6666667c.2945519 0 .5333333.2387815.5333333.5333333 0 .2945519-.2387814.5333334-.5333333.5333334s-.5333333-.2387815-.5333333-.5333334c0-.2945518.2387814-.5333333.5333333-.5333333z" fill="#fff" fill-rule="nonzero" mask="url(#b)"/><path d="m17.4873229 13.7611722c-.4240514-.3641727-.9392173-.6093171-1.667471-.2309371-1.7265795.8970817-.4198519 4.3364316 1.1134814 4.3364316.4001152 0 .5989897 1.2563321-1.1820583 2.133788 0-1.4-2.1333333-4.8666667-2.3193858-8.0229961-2.1472809-.7993032-1.6139475-3.99756334-.139598-3.99756334-.2358094-2.93220436 4.4589838-4.44610727 6.2768548-2.76397801 1.8487957-2.2154626 6.5154623-1.08212926 6.7972922.83985807 3.2088375-1.71303034 5.3181701 3.211346 2.3135111 5.12238008-1.2363474.7863461-4.1286743 1.0860041-8.303674 1.0860041-.6302019 0-.9832678.1565064-.8071293.9358405.3412956 1.5100809-.4508936 2.4613597-2.0818231.5611722z" fill="#333" mask="url(#b)"/></g></svg>