<svg height="40" viewBox="0 0 40 40" width="40" xmlns="http://www.w3.org/2000/svg" xmlns:xlink="http://www.w3.org/1999/xlink"><defs><circle id="a" cx="20" cy="20" r="20"/><path id="b" d="m16.9333333 15.0666667c-1.1347168.6222222-2.2240669.9333333-3.2680501.9333333-1.0439833 0-2.0879666-.3111111-3.1319499-.9333333v-2.9333334c-.3989819.071192-.70493358.0605773-1.01896075.0605445-3.19830093-.0003343-4.40439764-4.65909412-3.78103922-10.32721113.4 0 1.33333334 0 2.66666667-1.86666667-.33333333 2.6 3.5333333 2.2 5 .13333333-.7333333 2.46666667 1.2 4.13333334 2.8666667 3.13333334 3.2681796-1.96090781 4.002767 4.01677478.6666666 4.06666666z"/><mask id="c" fill="#fff"><use fill="#fff" fill-rule="evenodd" xlink:href="#a"/></mask><mask id="d" fill="#fff"><use fill="#fff" fill-rule="evenodd" xlink:href="#b"/></mask></defs><g fill="none" fill-rule="evenodd"><use fill="#6074d6" xlink:href="#a"/><path d="m6.83522148 21.2666667c-1.08158784-3.5920683-1.74825451-9.7333334 2.8-13.93333337 3.47596612-3.20981546 12.86666662-3.53333333 16.13333332 3.46666667.5453201 1.1685431-.2 3-1.6666667 2.9333333-.5764452-.026202-.9333333 1.8-1.2666666 2.9333334.4666666 4.6 4.6242974 4.6849401 6.7333333 8.2 2.6 4.3333333-.6 10.7333333-8.2666667 10.7333333-7.6666666 0-12.0616789-6.3461134-14.46666662-14.3333333z" fill="#333" mask="url(#c)" transform="matrix(-1 0 0 1 36.502 0)"/><g mask="url(#c)"><g transform="translate(6.267 11.867)"><path d="m26 19.9233038c.6518519 1.2554573 1.1407407 4.1699115 1.4666667 8.7433629h-27.4666667c.32592593-4.5734514.81481482-7.4879056 1.46666667-8.7433629.97777777-1.8831858 5.06666666-4.0353982 12.26666663-6.4566371 7.2 2.4212389 11.2888889 4.5734513 12.2666667 6.4566371z" fill="#ea6e42"/><use fill="#f8d6c9" xlink:href="#b"/><path d="m10.5333333 12.1333333c1.7777778-.3111111 3.3333334-.9111111 4.6666667-1.8-1.1111111 1.9111111-2.6666667 2.8666667-4.6666667 2.8666667z" fill="#ccc" mask="url(#d)"/></g></g><g fill="#fafafa" mask="url(#c)"><path d="m5.07107909 2.39665406c.96365047-.04361198 3.19558758-.51559971 3.19558758-1.53528023v-.86137383c.24453817 0 .94472026.57764727 1.30478901 1.06666667 1.42352822 1.93333333-.15546183 3.66666666-1.44313843 3.66666666-1.62488744 0-2.70140143-1.35753643-3.06165058-2.01070679-.36024915.65317036-1.43676314 2.01070679-3.06165058 2.01070679-1.28767661 0-2.86666667-1.73333333-1.44313844-3.66666666.36006875-.4890194 1.06025084-1.06666667 1.30478902-1.06666667v.86137383c0 1.01968036 2.29225903 1.49166811 3.20441287 1.53528021z" transform="translate(14.933 25.333)"/></g><path d="m20 36.2666667c.2945519 0 .5333333.2387814.5333333.5333333s-.2387814.5333333-.5333333.5333333-.5333333-.2387814-.5333333-.5333333.2387814-.5333333.5333333-.5333333zm0-2.6666667c.2945519 0 .5333333.2387815.5333333.5333333 0 .2945519-.2387814.5333334-.5333333.5333334s-.5333333-.2387815-.5333333-.5333334c0-.2945518.2387814-.5333333.5333333-.5333333zm0-2.6666667c.2945519 0 .5333333.2387815.5333333.5333334 0 .2945518-.2387814.5333333-.5333333.5333333s-.5333333-.2387815-.5333333-.5333333c0-.2945519.2387814-.5333334.5333333-.5333334z" fill="#333" mask="url(#c)"/></g></svg>