<svg height="40" viewBox="0 0 40 40" width="40" xmlns="http://www.w3.org/2000/svg" xmlns:xlink="http://www.w3.org/1999/xlink"><defs><circle id="a" cx="20" cy="20" r="20"/><mask id="b" fill="#fff"><use fill="#fff" fill-rule="evenodd" xlink:href="#a"/></mask></defs><g fill="none" fill-rule="evenodd"><use fill="#feb04a" xlink:href="#a"/><g mask="url(#b)"><g transform="translate(4 4.133)"><path d="m20.2666667 19.3333333v2.9333334c0 .1936211-1.4222223.5834955-4.2666667 1.1696232-2.8444444-.5035382-4.2666667-.8934126-4.2666667-1.1696232 0-.7839433.0160537-4.7197854 0-8.3749502-1.91094244-2.4768917-1.91094244-4.02504983-.4-5.62504983 1.007295-1.06666667 5.0961839-1.86666667 12.2666667-2.4.5379989 5.17421793.84911 8.46310683.9333333 9.86666663.0508066.8466792.6 3.6-1.5333333 3.6-.799625 0-1.7107361 0-2.7333333 0z" fill="#f8d6c9"/><path d="m20.2666667 19.083084v1.6049596c-2.8576846-.5090082-4.502129-1.5828004-4.9333334-3.2213769 1.2444445.8444444 2.8444445 1.3777777 4.8 1.6.0446675.0050758.0891185.0105536.1333334.0164173z" fill="#ccc"/><path d="m30 28.307711c.8462426 1.7206045 1.5129092 4.5650489 2 8.5333333h-32c.4873237-3.9687291 1.15399037-6.8131735 2-8.5333333.56215017-1.1429989 3.45103905-2.8145059 8.6666667-5.0145208l10.6666666-.0009012c5.216741 2.2028985 8.1056298 3.8747059 8.6666667 5.015422z" fill="#5066ce"/><path d="m16.9333333 24.1333333.6666667 12.2666667h-3.2l.6666667-12.2666667c.4148148-.4444444.7259259-.6666666.9333333-.6666666s.5185185.2222222.9333333.6666666z" fill="#f3d041"/><path d="m17.0682461 26.6157273-2.0714467-1.1968358.0698673-1.2855582c.4148148-.4444444.7259259-.6666666.9333333-.6666666s.5185185.2222222.9333333.6666666z" fill="#ccc"/><path d="m16 23.466-1.333 2.401-4.134-2.534 1.2-1.733 4.267 1.576 4.267-1.576 1.2 1.733-4.134 2.534z" fill="#4457b5"/><path d="m13.4693812 9.89405083c-.4240513-.36417269-.9392172-.609317-1.6674709-.23093707-1.7265795.89708174-.5806877 4.35487764 1.3514679 4.28740524.6662606-.0232663.3610032 1.3053585-1.4200449 2.1828143 0-1.4-2.1333333-4.8666666-2.31938576-8.02299606-2.14728087-.7993032-1.61394754-3.9975633-.13959799-3.9975633-.23580943-2.93220436 4.45898375-4.44610727 6.27685475-2.76397802 1.8487957-2.21546259 6.5154624-1.08212925 6.7972922.83985808 3.2088375-1.71303035 5.3181702 3.211346 2.3135111 5.12238004-1.2363473.7863461-4.1286743 1.08600415-8.303674 1.08600415-2.0035255 0-.851322 4.68935091-.2250003 6.20296181.8 1.9333333 5.2666667 2.2 6.6666667 2 1.0932658-.1561808 1.6666667-.6 1.7333333-.8666667 1 2.6666667-.2666766 4.2666667-2.2666666 4.2666667-3.4 0-6.8-1-7.3333334-3.4666667-.4244563-1.9631107-.4011936-5.1312015-1.4639521-6.63928247z" fill="#333"/></g></g></g></svg>