<svg height="40" viewBox="0 0 40 40" width="40" xmlns="http://www.w3.org/2000/svg" xmlns:xlink="http://www.w3.org/1999/xlink"><defs><circle id="a" cx="20" cy="20" r="20"/><path id="b" d="m2.53333333 15.3333333c0-1.2-.04081703-7.11888905-.03881152-7.21895426-3.29452181.48562096-3.22785514-5.78104571.10547819-4.24771237.73333333.46666666 2.8 0 2.6-3.86666667 3.6 3.86666667 7.7795715-.64318309 8.1379801 3.03169922.4894083 5.01806499-.0028858 10.26951618-3.1214603 10.26984248-.29846728.0000312-.63730721-.033816-1.0165198-.1015417v2.1333333c0 .8888889.8 1.5555556 2.4 2-2.76369053 2.6040546-4.71924608 3.8991228-5.86666667 3.8852046-1.14742058-.0140677-3.01408725-1.3091359-5.6-3.8852046 1.6-.4444444 2.4-1.1111111 2.4-2z"/><mask id="c" fill="#fff"><use fill="#fff" fill-rule="evenodd" xlink:href="#a"/></mask><mask id="d" fill="#fff"><use fill="#fff" fill-rule="evenodd" xlink:href="#b"/></mask></defs><g fill="none" fill-rule="evenodd"><use fill="#6aca65" xlink:href="#a"/><g mask="url(#c)"><g transform="translate(4.267 4.267)"><path d="m14.0999534 23.627283c-1.0872588-1.9599861-3.6087764-5.7322923-9.738619-11.1234355-9.2498625-8.13517361-.01183566-14.95611682 9.5107163-10.81739847 1.0186861.44274421 3.9379959-1.08467559 6.529319.72305214 1.6716431 1.16615158.9755462 2.00977234 1.6111862 2.89996707s3.2049655.92916639 3.6884879 3.20025553c.2864289 1.34534772-.6843357 2.71005713-.5963227 3.71807093s1.0295757 1.9470061 1.0295757 3.2737746c0 2.3585072-1.9091274 4.270455-4.2641554 4.270455-.0928638 2.2904368-1.9712838 4.1234741-4.2772011 4.1234741-.7358813 0-1.4282254-.1866807-2.0323898-.5153338-.6501804.5583823-1.1972197.7219052-1.4605971.2471184z" fill="#333" transform="matrix(-.99939083 -.0348995 -.0348995 .99939083 27.08529 .472775)"/><path d="m14.5333333 1.2c-1.6420895 1.05344589-3.673798 4.50796351-2.7819755 9.1454406.1945984 1.0119114-.4132504 1.3148657-.9333333.0666667-1.56894919-3.76547808-1.75074637-7.16130906.9331089-8.78572042.4668911-.28094627.7335578-.05331757 1.0668911-.08094627.6339314-.05254409 1.4875673-.50168901 1.7153088-.34544061z" fill="#f3d041"/><g transform="translate(9.867 6.267)"><use fill="#ea6e42" xlink:href="#b"/><path d="m4.56762275 13.1191416c1.81910436-.3283058 3.3808668-.9453137 4.68528733-1.8510239-.83243471 1.847681-2.40834737 2.9089101-4.72773801 3.1836875z" fill="#ccc" mask="url(#d)" transform="matrix(-.99939083 -.0348995 -.0348995 .99939083 14.222697 .248258)"/></g><path d="m26 4.66666667c.6449149 1.43307912 1.1338038 4.32196801 1.4666667 8.66666663h-27.4666667c.33286283-4.34469862.82175172-7.23358751 1.46666667-8.66666663.84741904-1.88306777 6.43180151-4.04517103 8.06837264-4.66666667.94528719 1.05705541 2.29914699 1.73333333 4.19829399 1.73333333s3.2530069-.67627792 4.1982941-1.73333333c1.6365711.62149564 7.2209536 2.7835989 8.0683726 4.66666667z" fill="#f3d041" transform="translate(2 22.933)"/></g></g></g></svg>