<svg height="40" viewBox="0 0 40 40" width="40" xmlns="http://www.w3.org/2000/svg" xmlns:xlink="http://www.w3.org/1999/xlink"><defs><circle id="a" cx="20" cy="20" r="20"/><path id="b" d="m26 6.4c.6518519 1.24444444 1.1407407 4.1333333 1.4666667 8.6666667h-27.4666667c.32592593-4.5333334.81481482-7.42222226 1.46666667-8.6666667.97777777-1.86666667 5.06666666-4 12.26666663-6.4 7.2 2.4 11.2888889 4.53333333 12.2666667 6.4z"/><path id="c" d="m8.02388646 3.29399539c.53333333-2.33333334-1.99561274-4.12387676-4.6-2.89470355-6.13333333 2.89470355-2.48476392 6.93404149-.21809726 6.66737483 2.26666667-.26666667 4.28476393-1.43933795 4.81809726-3.77267128z"/><mask id="d" fill="#fff"><use fill="#fff" fill-rule="evenodd" xlink:href="#a"/></mask><mask id="e" fill="#fff"><use fill="#fff" fill-rule="evenodd" xlink:href="#b"/></mask><mask id="f" fill="#fff"><use fill="#fff" fill-rule="evenodd" xlink:href="#c"/></mask></defs><g fill="none" fill-rule="evenodd"><use fill="#f55961" xlink:href="#a"/><g mask="url(#d)"><g transform="translate(6.267 26)"><use fill="#f8d6c9" xlink:href="#b"/><path d="m.4 13.0666667c.4418278 0 .8.3581722.8.8s-.3581722.8-.8.8-.8-.3581722-.8-.8.3581722-.8.8-.8zm5.33333333 0c.4418278 0 .8.3581722.8.8s-.3581722.8-.8.8-.8-.3581722-.8-.8.3581722-.8.8-.8zm5.33333337 0c.4418278 0 .8.3581722.8.8s-.3581722.8-.8.8-.8-.3581722-.8-.8.3581722-.8.8-.8zm5.3333333 0c.4418278 0 .8.3581722.8.8s-.3581722.8-.8.8-.8-.3581722-.8-.8.3581722-.8.8-.8zm5.3333333 0c.4418278 0 .8.3581722.8.8s-.3581722.8-.8.8-.8-.3581722-.8-.8.3581722-.8.8-.8zm5.3333334 0c.4418278 0 .8.3581722.8.8s-.3581722.8-.8.8-.8-.3581722-.8-.8.3581722-.8.8-.8zm-24.00000003-2.6666667c.4418278 0 .8.3581722.8.8s-.3581722.8-.8.8-.8-.3581722-.8-.8.3581722-.8.8-.8zm5.33333333 0c.4418278 0 .8.3581722.8.8s-.3581722.8-.8.8-.8-.3581722-.8-.8.3581722-.8.8-.8zm5.3333333 0c.4418278 0 .8.3581722.8.8s-.3581722.8-.8.8-.8-.3581722-.8-.8.3581722-.8.8-.8zm5.3333334 0c.4418278 0 .8.3581722.8.8s-.3581722.8-.8.8-.8-.3581722-.8-.8.3581722-.8.8-.8zm5.3333333 0c.4418278 0 .8.3581722.8.8s-.3581722.8-.8.8-.8-.3581722-.8-.8.3581722-.8.8-.8zm-24-2.66666667c.4418278 0 .8.3581722.8.8s-.3581722.8-.8.8-.8-.3581722-.8-.8.3581722-.8.8-.8zm5.33333333 0c.4418278 0 .8.3581722.8.8s-.3581722.8-.8.8-.8-.3581722-.8-.8.3581722-.8.8-.8zm5.33333337 0c.4418278 0 .8.3581722.8.8s-.3581722.8-.8.8-.8-.3581722-.8-.8.3581722-.8.8-.8zm5.3333333 0c.4418278 0 .8.3581722.8.8s-.3581722.8-.8.8-.8-.3581722-.8-.8.3581722-.8.8-.8zm5.3333333 0c.4418278 0 .8.3581722.8.8s-.3581722.8-.8.8-.8-.3581722-.8-.8.3581722-.8.8-.8zm5.3333334 0c.4418278 0 .8.3581722.8.8s-.3581722.8-.8.8-.8-.3581722-.8-.8.3581722-.8.8-.8zm-24.00000003-2.66666666c.4418278 0 .8.3581722.8.8s-.3581722.8-.8.8-.8-.3581722-.8-.8.3581722-.8.8-.8zm5.33333333 0c.4418278 0 .8.3581722.8.8s-.3581722.8-.8.8-.8-.3581722-.8-.8.3581722-.8.8-.8zm5.3333333 0c.4418278 0 .8.3581722.8.8s-.3581722.8-.8.8-.8-.3581722-.8-.8.3581722-.8.8-.8zm5.3333334 0c.4418278 0 .8.3581722.8.8s-.3581722.8-.8.8-.8-.3581722-.8-.8.3581722-.8.8-.8zm5.3333333 0c.4418278 0 .8.3581722.8.8s-.3581722.8-.8.8-.8-.3581722-.8-.8.3581722-.8.8-.8zm-24-2.66666667c.4418278 0 .8.3581722.8.8s-.3581722.8-.8.8-.8-.3581722-.8-.8.3581722-.8.8-.8zm5.33333333 0c.4418278 0 .8.3581722.8.8s-.3581722.8-.8.8-.8-.3581722-.8-.8.3581722-.8.8-.8zm15.99999997 0c.4418278 0 .8.3581722.8.8s-.3581722.8-.8.8-.8-.3581722-.8-.8.3581722-.8.8-.8zm5.3333334 0c.4418278 0 .8.3581722.8.8s-.3581722.8-.8.8-.8-.3581722-.8-.8.3581722-.8.8-.8z" fill="#ffa784" mask="url(#e)"/></g></g><g mask="url(#d)"><g transform="translate(21.333 3.733)"><use fill="#f3d041" transform="matrix(-1 0 0 1 8.14 0)" xlink:href="#c"/><path d="m2.33333333 3.66666667c3.02222223 1.95555555 4.91111111 2.4 5.66666667 1.33333333.11691833.66810474-.42082256 2.55534578-1.26666667 2.53333333-1.68683312-.04389853-3.15349979-1.33278742-4.4-3.86666666z" fill="#ccc" mask="url(#f)"/></g></g><path d="m22.9333333 21.7333333c-2.8644665 1.3760673-3.2823025 1.3023586-9.6-3.8666666-9.5333333-7.8-.5333333-14.93333337 9.1333334-11.13333337 10.4666666 4.59999997 6.9600439 11.88063247.4666666 14.99999997z" fill="#f3d041" mask="url(#d)"/><path d="m23.2 27.2c-.9777778 1.6-5.4222222 1.6-6.4 0v-2.6666667c-.2900096.0085238-.534454.0085238-.7333333 0-3.1185745-.1336596-4.1607217-5.1502358-3.6713135-10.1683008.3584086-3.6748823 3.4713135 1.3683008 8.5379801-2.1650325-.2 3.8666667 1.4666667 3.4666667 2.2 3 3.3333334-1.5333333 3.3611885 4.7522876.0666667 4.2666667z" fill="#feb04a" mask="url(#d)"/><path d="m16.7871721 24.4548322c1.2023712-.0469554 2.7197163-.6655144 4.5520352-1.8556772-.9197183 1.8001615-2.4510232 2.8184768-4.5939146 3.0549462z" fill="#ccc" mask="url(#d)" transform="matrix(.99939083 -.0348995 .0348995 .99939083 -.83042 .679254)"/><path d="m23.2 26.8613738v-.8613738c.2445382 0 .9447203.5776473 1.304789 1.0666667 1.4235282 1.9333333-.1554618 3.6666666-1.4431384 3.6666666-1.6248875 0-2.7014015-1.3575364-3.0616506-2.0107068-.3602491.6531704-1.4367631 2.0107068-3.0616506 2.0107068-1.2876766 0-2.8666666-1.7333333-1.4431384-3.6666666.3600687-.4890194 1.0602508-1.0666667 1.304789-1.0666667v.8613738c0 1.0196806 2.2319371 1.4916683 3.1955876 1.5352803.9121534-.0436122 3.2044124-.5155999 3.2044124-1.5352803z" fill="#fff" fill-rule="nonzero" mask="url(#d)"/></g></svg>