<svg xmlns="http://www.w3.org/2000/svg" width="36" height="36" viewBox="0 0 36 36">
  <path d="M1.47087331,33.5150646 C1.45385261,33.5148206 1.43684282,33.5141446 1.41986175,33.5130378 L1.48484848,33.5151515 C1.44260673,33.5151515 1.40097671,33.5125324 1.36011196,33.5074476 C1.34024169,33.5048575 1.32047512,33.5017777 1.30080581,33.4981079 C1.28358094,33.4950488 1.26642045,33.4913826 1.24942917,33.4872825 C1.23240983,33.4830086 1.2159666,33.4785868 1.19962942,33.4737425 C1.17698868,33.4671702 1.15438273,33.4595594 1.13215391,33.4511794 C1.11763086,33.4456295 1.10351638,33.4399491 1.08951734,33.4339378 C1.06998564,33.4255551 1.05071376,33.4165058 1.03178944,33.4068717 C1.01552846,33.3986745 0.999415709,33.3899311 0.983512994,33.3807193 C0.965483284,33.3701348 0.947598094,33.3589851 0.930102187,33.3472983 C0.915677229,33.3378378 0.901911565,33.3281282 0.888354102,33.318036 C0.868751354,33.3032682 0.84937657,33.287709 0.830612549,33.2714632 C0.794378822,33.2401829 0.760132253,33.2059477 0.728025477,33.1687714 L0.805693223,33.2491525 C0.782132585,33.2273419 0.759624061,33.2044109 0.738252306,33.1804444 L0.728025477,33.1687714 C0.726081716,33.1665207 0.72414976,33.1642639 0.722229605,33.1620009 C0.654050528,33.0817852 0.598182666,32.9903253 0.557843975,32.8909062 C0.532193343,32.8276402 0.51338093,32.7625353 0.501275715,32.6965509 C0.490516473,32.6381092 0.484848485,32.5772923 0.484848485,32.5151515 L0.484848485,1.48484848 C0.484848485,0.932563735 0.932563735,0.484848485 1.48484848,0.484848485 L32.5151515,0.484848485 C33.0674363,0.484848485 33.5151515,0.932563735 33.5151515,1.48484848 L33.5151515,32.5151515 C33.5151515,33.0674363 33.0674363,33.5151515 32.5151515,33.5151515 Z M22.8426391,15.3910998 L4.17184848,31.5148485 L31.5151515,31.5151515 L31.5148485,22.3288485 L22.8426391,15.3910998 Z M31.5151515,2.48484848 L2.48484848,2.48484848 L2.48484848,30.3298485 L22.1645619,13.3340861 C22.4960758,13.0477787 22.9703442,13.0133964 23.3365183,13.2356578 L23.4428769,13.3100403 L31.5148485,19.7678485 L31.5151515,2.48484848 Z M11.1818182,6.3030303 C13.8761635,6.3030303 16.0606061,8.48747283 16.0606061,11.1818182 C16.0606061,13.8761635 13.8761635,16.0606061 11.1818182,16.0606061 C8.48747283,16.0606061 6.3030303,13.8761635 6.3030303,11.1818182 C6.3030303,8.48747283 8.48747283,6.3030303 11.1818182,6.3030303 Z M11.1818182,8.3030303 C9.59204233,8.3030303 8.3030303,9.59204233 8.3030303,11.1818182 C8.3030303,12.771594 9.59204233,14.0606061 11.1818182,14.0606061 C12.771594,14.0606061 14.0606061,12.771594 14.0606061,11.1818182 C14.0606061,9.59204233 12.771594,8.3030303 11.1818182,8.3030303 Z" transform="translate(1 1)"/>
</svg>
