<svg xmlns="http://www.w3.org/2000/svg" width="36" height="36" viewBox="0 0 36 36">
  <path fill="#3B3D3E" fill-rule="evenodd" d="M6.07352941,22.7012941 L6.07352941,27.7307059 L7.64705882,27.7307059 C8.33741476,27.7307059 8.89705882,28.2903499 8.89705882,28.9807059 C8.89705882,29.6710618 8.33741476,30.2307059 7.64705882,30.2307059 L6.07352941,30.2307059 L6.07352941,30.2352941 C6.07352941,31.2709677 6.92556193,32.1231765 7.96047059,32.1231765 L26.784,32.1231765 C27.8260545,32.1231765 28.6709412,31.2779396 28.6709412,30.2352941 L28.6709412,5.13788235 C28.6709412,4.10220881 27.8189087,3.25 26.784,3.25 L7.96047059,3.25 C6.91841611,3.25 6.07352941,4.09523692 6.07352941,5.13788235 L6.07352941,5.14247059 L7.64705882,5.14247059 C8.33741476,5.14247059 8.89705882,5.70211465 8.89705882,6.39247059 C8.89705882,7.08282653 8.33741476,7.64247059 7.64705882,7.64247059 L6.07352941,7.64247059 L6.07352941,12.6718824 L7.64705882,12.6718824 C8.33741476,12.6718824 8.89705882,13.2315264 8.89705882,13.9218824 C8.89705882,14.6122383 8.33741476,15.1718824 7.64705882,15.1718824 L6.07352941,15.1718824 L6.07352941,20.2012941 L7.64705882,20.2012941 C8.33741476,20.2012941 8.89705882,20.7609382 8.89705882,21.4512941 C8.89705882,22.1416501 8.33741476,22.7012941 7.64705882,22.7012941 L6.07352941,22.7012941 Z M3.57352941,20.2012941 L3.57352941,15.1718824 L2,15.1718824 C1.30964406,15.1718824 0.75,14.6122383 0.75,13.9218824 C0.75,13.2315264 1.30964406,12.6718824 2,12.6718824 L3.57352941,12.6718824 L3.57352941,7.64247059 L2,7.64247059 C1.30964406,7.64247059 0.75,7.08282653 0.75,6.39247059 C0.75,5.70211465 1.30964406,5.14247059 2,5.14247059 L3.57352941,5.14247059 L3.57352941,5.13788235 C3.57352941,2.71475692 5.53747226,0.75 7.96047059,0.75 L26.784,0.75 C29.1997363,0.75 31.1709412,2.72161271 31.1709412,5.13788235 L31.1709412,30.2352941 C31.1709412,32.6584196 29.2069983,34.6231765 26.784,34.6231765 L7.96047059,34.6231765 C5.54473426,34.6231765 3.57352941,32.6515638 3.57352941,30.2352941 L3.57352941,30.2307059 L2,30.2307059 C1.30964406,30.2307059 0.75,29.6710618 0.75,28.9807059 C0.75,28.2903499 1.30964406,27.7307059 2,27.7307059 L3.57352941,27.7307059 L3.57352941,22.7012941 L2,22.7012941 C1.30964406,22.7012941 0.75,22.1416501 0.75,21.4512941 C0.75,20.7609382 1.30964406,20.2012941 2,20.2012941 L3.57352941,20.2012941 Z M22.7104706,14.3851294 C22.7104706,11.9567838 20.7415308,9.98807059 18.3134118,9.98807059 C15.8852928,9.98807059 13.9163529,11.9567838 13.9163529,14.3851294 C13.9163529,16.8128911 15.8856501,18.7821882 18.3134118,18.7821882 C20.7411735,18.7821882 22.7104706,16.8128911 22.7104706,14.3851294 Z M25.2104706,14.3851294 C25.2104706,18.193603 22.1218853,21.2821882 18.3134118,21.2821882 C14.5049382,21.2821882 11.4163529,18.193603 11.4163529,14.3851294 C11.4163529,10.5760075 14.5046453,7.48807059 18.3134118,7.48807059 C22.1221782,7.48807059 25.2104706,10.5760075 25.2104706,14.3851294 Z M23.9604706,24.2794118 C24.6508265,24.2794118 25.2104706,24.8390558 25.2104706,25.5294118 C25.2104706,26.2197677 24.6508265,26.7794118 23.9604706,26.7794118 L12.6663529,26.7794118 C11.975997,26.7794118 11.4163529,26.2197677 11.4163529,25.5294118 C11.4163529,24.8390558 11.975997,24.2794118 12.6663529,24.2794118 L23.9604706,24.2794118 Z" transform="translate(2)"/>
</svg>
